<?xml version="1.0" encoding="utf-8"?>
<!-- Generator: Adobe Illustrator 25.4.1, SVG Export Plug-In . SVG Version: 6.00 Build 0)  -->
<svg version="1.1" id="Layer_1" xmlns="http://www.w3.org/2000/svg" xmlns:xlink="http://www.w3.org/1999/xlink" x="0px" y="0px"
	 viewBox="0 0 260 260" style="enable-background:new 0 0 260 260;" xml:space="preserve">
<g>
	<path d="M168.8,134.9c8.6-33.4,37.2-20.5,37.8-4.3C207.7,152.1,179.6,147.3,168.8,134.9z"/>
	<path d="M249.2,178c2.7-15.1-17.3-22.7-24.3-5.4c-9.7,35.1-51.3,48-53.4-1.6c78.2,25.4,84.7-96.6,10.3-91.2
		c-36.1,2.7-53.9,36.1-55.6,71.2c-2.2,45.9,25.4,94.4,75,84.2c2.7-0.5,5.9-1.6,8.6-2.7c-22.1,16.7-49.1,27-79.3,27
		c-72.3,0-130-57.7-130-129.5c0-29.1,9.7-55.6,25.4-77.1c4.3,1.6,8.6,2.2,13.5,2.7c8.1,1.6,16.2,1.6,24.3,2.7c0,2.2,0.5,3.2,0,4.9
		c-3.8,53.9-6.5,110.1,10.3,160.2c2.2,6.5,5.4,12.9,9.7,18.9c4.9,6.5,11.9,7.6,18.3,4.3c5.4-3.2,7-8.1,5.4-15.1
		c-1.6-7.6-3.2-15.1-3.2-22.1c-1.6-44.2-2.7-106.8-3.2-152.1c3.2,0,6.5-0.5,10.3-1.1c20.5-1.6,42.1-3.8,62.6-5.4
		c12.4-1.6,29.7-2.2,29.7-15.6c-1.1-5.4-4.9-9.2-11.3-9.7c-4.9-0.5-8.6-0.5-13.5-0.5c-39.4,1.1-71.8,3.2-104.1,4.9
		c-8.6,0-18.4,0.2-26.5,0.2C68.8,12.3,98.5,0.5,130,0.5c71.8,0,129.5,57.7,129.5,129.5c0,18.3-3.8,36.1-10.8,51.8
		C248.7,180.7,249.2,179.6,249.2,178z"/>
</g>
</svg>
