<?xml version="1.0" encoding="utf-8"?>]
<svg version="1.1" id="Layer_1" xmlns="http://www.w3.org/2000/svg" xmlns:xlink="http://www.w3.org/1999/xlink" x="0px" y="0px"
	 viewBox="0 0 48 48" style="enable-background:new 0 0 48 48;" xml:space="preserve">
<style type="text/css">
	.st0{fill:#FFFFFF;}
</style>
<g>
	<path class="st0" d="M31.2,24.9c1.6-6.2,6.9-3.8,7-0.8C38.4,28.1,33.2,27.2,31.2,24.9z"/>
	<path class="st0" d="M46.1,32.9c0.5-2.8-3.2-4.2-4.5-1c-1.8,6.5-9.5,8.9-9.9-0.3c14.5,4.7,15.7-17.9,1.9-16.9
		c-6.7,0.5-10,6.7-10.3,13.2c-0.4,8.5,4.7,17.5,13.9,15.6c0.5-0.1,1.1-0.3,1.6-0.5c-4.1,3.1-9.1,5-14.7,5C10.7,48,0,37.3,0,24
		c0-5.4,1.8-10.3,4.7-14.3c0.8,0.3,1.6,0.4,2.5,0.5c1.5,0.3,3,0.3,4.5,0.5c0,0.4,0.1,0.6,0,0.9c-0.7,10-1.2,20.4,1.9,29.7
		c0.4,1.2,1,2.4,1.8,3.5c0.9,1.2,2.2,1.4,3.4,0.8c1-0.6,1.3-1.5,1-2.8c-0.3-1.4-0.6-2.8-0.6-4.1c-0.3-8.2-0.5-19.8-0.6-28.2
		c0.6,0,1.2-0.1,1.9-0.2c3.8-0.3,7.8-0.7,11.6-1c2.3-0.3,5.5-0.4,5.5-2.9c-0.2-1-0.9-1.7-2.1-1.8c-0.9-0.1-1.6-0.1-2.5-0.1
		c-7.3,0.2-13.3,0.6-19.3,0.9c-1.6,0-3.1,0-4.6,0C13,2,18.3,0,24,0c13.3,0,24,10.7,24,24c0,3.4-0.7,6.7-2,9.6
		C46,33.4,46.1,33.2,46.1,32.9z"/>
</g>
</svg>

