<?xml version="1.0" encoding="utf-8"?>
<svg version="1.1" id="Layer_1" xmlns="http://www.w3.org/2000/svg" xmlns:xlink="http://www.w3.org/1999/xlink" x="0px" y="0px"
	 viewBox="0 0 194.1 48" style="enable-background:new 0 0 194.1 48;" xml:space="preserve">
<style type="text/css">
	.st0{fill:#FFFFFF;}
</style>
<path class="st0" d="M93.3,20.2c-1.1-1.2-2.5-1.7-4.4-1.7c-2,0-3.7,0.6-4.9,1.8c-1.2,1.2-1.9,2.9-2,5h13.1
	C94.9,23,94.3,21.4,93.3,20.2z M93.3,20.2c-1.1-1.2-2.5-1.7-4.4-1.7c-2,0-3.7,0.6-4.9,1.8c-1.2,1.2-1.9,2.9-2,5h13.1
	C94.9,23,94.3,21.4,93.3,20.2z M0,0v48h194.1V0H0z M71.7,22c-0.2-2.3-0.8-4.1-1.9-5.3c-1.1-1.3-2.6-1.9-4.5-1.9
	c-2.2,0-3.8,0.8-4.9,2.5c-1,1.7-1.5,4-1.5,6.9c0,2.7,0.4,4.8,1.2,6.4c1,1.8,2.6,2.6,5,2.6V34H46v-0.9c2.4,0,4-0.8,4.9-2.6
	c0.8-1.6,1.3-3.7,1.3-6.4c0-6.3-2.2-9.4-6.5-9.4c-1.9,0-3.4,0.6-4.5,1.9c-1,1.2-1.6,3-1.8,5.4h-0.9c0.5-3.5,0.7-6.2,0.6-8.1H72
	c-0.1,1.9,0.1,4.6,0.6,8.1H71.7z M84.5,31.6c1.6,1.3,3.8,1.9,6.6,1.9c2.4,0,4.6-0.5,6.5-1.4c1.9-0.9,3.1-2.1,3.6-3.7h1
	c-0.6,2-1.9,3.5-4.1,4.5c-2.2,1-5,1.5-8.4,1.5c-4.1,0-7.8-0.6-10.9-1.9c-1.6-0.7-2.8-1.6-3.7-2.7c-0.9-1.2-1.3-2.5-1.3-4
	c0-5.6,5-8.4,15-8.4c4.3,0,7.7,0.6,10.2,1.9c2.7,1.3,4,3.6,4,6.8H81.9C82,28.5,82.9,30.3,84.5,31.6z M117.6,34.6
	c-6,0-9.6-1.5-10.9-4.4c-0.2,1.8-0.3,3.1-0.3,3.8h-1c0.2-3.2,0.3-5.4,0.2-6.8h1.4v0h0c0,1.2,0.2,2.2,0.8,3c0.5,0.9,1.3,1.6,2.2,2
	c1.8,0.9,4,1.4,6.4,1.4c1.8,0,3.2-0.2,4.2-0.7c1-0.4,1.5-1.1,1.5-1.9c0.1-0.8-0.5-1.4-1.7-1.8c-0.5-0.2-1.3-0.4-2.6-0.5
	c-0.2,0-0.7-0.1-1.6-0.2c-0.7-0.1-1.3-0.2-1.6-0.2c-1.8-0.2-3.5-0.6-4.9-1.1c-2.5-0.9-3.8-2.4-3.8-4.4c0-2,1.2-3.5,3.7-4.4
	c2.2-0.8,4.9-1.2,8.1-1.2c5.9,0,9.4,1.3,10.6,4c0.2-1.1,0.3-2.3,0.3-3.4h0.9c-0.2,3-0.2,4.7-0.2,5.2h-1.4c0-1.4-0.9-2.6-2.6-3.5
	c-1.7-0.9-3.8-1.4-6.1-1.4c-1.5,0-2.7,0.2-3.5,0.6c-0.8,0.4-1.2,0.9-1.2,1.6c0,0.6,0.5,1.1,1.4,1.4c0.3,0.1,1,0.2,2.3,0.3
	c0.3,0,0.7,0.1,1.5,0.1c0.7,0.1,1.2,0.1,1.5,0.1c2.2,0.2,4.1,0.6,5.7,1.1c3,0.9,4.5,2.6,4.6,5.1C131.3,32.6,126.7,34.6,117.6,34.6z
	 M154,32.9c-1.3,1.2-3.3,1.8-6.1,1.8c-3.4,0-6.2-0.8-8.4-2.4c-2.2-1.6-3.2-3.9-3.1-6.7v-6.7h-4.1v-1h3.8c2.4,0,4.3-0.3,5.7-1
	c1.7-0.7,2.5-2.1,2.5-4.2h1v5.2h9.2v1h-9.2v7.3c0,2.7,0.4,4.6,1.1,5.7c0.7,1.1,1.8,1.7,3.4,1.7c1.6,0,2.9-0.5,3.8-1.5
	c1-1,1.5-2.5,1.6-4.4h1C156,30,155.3,31.7,154,32.9z M88.8,18.4c-2,0-3.7,0.6-4.9,1.8c-1.2,1.2-1.9,2.9-2,5h13.1
	c-0.1-2.2-0.7-3.9-1.8-5.1C92.2,19,90.7,18.4,88.8,18.4z"/>
</svg>
