<?xml version="1.0" encoding="utf-8"?>
<!-- Generator: Adobe Illustrator 25.4.1, SVG Export Plug-In . SVG Version: 6.00 Build 0)  -->
<svg version="1.1" id="Layer_1" xmlns="http://www.w3.org/2000/svg" xmlns:xlink="http://www.w3.org/1999/xlink" x="0px" y="0px"
	 viewBox="0 0 48 48" style="enable-background:new 0 0 48 48;" xml:space="preserve">
<style type="text/css">
	.st0{fill:#FFFFFF;}
</style>
<g>
	<path class="st0" d="M40.4,36c-2.3,2.3-4.9,3-7.9,1.7c-8.3-3.7-4.9-19.1,3.8-18.9C42.3,19.1,46.7,29.6,40.4,36z"/>
	<path class="st0" d="M47.5,28.9c0.5-8-5-15.4-12.6-15.4c-12.6,0.1-17.4,15.3-11.3,24.1c4.9,7.1,13.5,6.5,18.9,1.6
		C38.2,44.6,31.5,48,24,48C10.7,48,0,37.3,0,24c0-4.3,1.1-8.4,3.1-11.9c1.1,0.8,2.4,1.1,3.8,1.3c1.4,0.2,2.7,0.3,4,0.4
		c0,0.3,0.1,0.6,0,0.8c-0.6,8.9-1.1,18.2,1.7,26.5c0.3,1.1,0.9,2.1,1.6,3.2c0.8,1.1,1.9,1.3,3,0.7c0.9-0.5,1.2-1.4,0.9-2.5
		c-0.2-1.3-0.6-2.5-0.6-3.7c-0.3-7.3-0.4-17.7-0.6-25.2c0.6,0,1.1-0.1,1.7-0.2c3.4-0.3,6.9-0.6,10.4-0.9c2-0.3,4.9-0.3,4.9-2.6
		c-0.2-0.9-0.8-1.5-1.9-1.6c-0.8-0.1-1.5-0.1-2.2-0.1C23.3,8.5,17.9,8.8,12.6,9c-2.1,0-4,0-6,0C6.1,9,5.7,9,5.3,9
		C9.7,3.5,16.4,0,24,0c13.3,0,24,10.7,24,24C48,25.7,47.8,27.3,47.5,28.9z"/>
</g>
</svg>
