<svg width="1598" height="517" viewBox="0 0 1598 517" fill="none" xmlns="http://www.w3.org/2000/svg">
<path d="M9.44173 371.13C58.4017 341.19 108.632 312.51 162.522 292.32C216.782 271.99 272.972 263.21 330.752 261.82C443.492 259.12 560.812 278.73 669.622 239.88C716.022 223.31 758.842 197.19 794.952 163.68C812.692 147.22 828.712 128.94 842.782 109.26C856.432 90.1603 869.702 66.3503 866.482 41.9803C863.602 20.2203 846.542 5.36033 825.502 1.71033C804.032 -2.00967 782.342 3.55033 762.492 11.5303C718.812 29.0903 681.492 59.0603 651.252 94.8203C620.082 131.68 595.802 174 576.532 218.14C553.432 271.08 536.682 326.77 510.052 378.16C487.142 422.36 455.962 464.43 412.392 490.03C395.172 500.15 373.662 507.29 353.612 502.33C344.682 500.12 336.732 495.1 332.602 486.64C326.492 474.13 331.012 460.29 337.762 449.08C351.142 426.85 373.702 409.12 393.732 393.12C414.072 376.87 435.812 362.33 458.482 349.52C504.302 323.64 554.172 305.1 605.822 294.94C627.982 290.58 651.562 286.73 673.902 292.17C684.042 294.64 693.872 299.27 700.732 307.36C707.032 314.8 709.662 326.65 719.812 330.14C731.752 334.25 740.682 323.82 747.672 315.84C756.792 305.43 765.942 295.01 775.642 285.13C795.042 265.36 817.122 247.33 843.642 238.22C870.162 229.11 896.802 231.13 922.302 243.86C946.282 255.84 967.952 268.46 995.372 270.3C1024.43 272.25 1053.31 264.85 1081.2 257.65C1110.53 250.08 1139.77 242.16 1168.92 233.89C1285.01 200.95 1399.53 162.51 1511.97 118.72C1539.26 108.09 1566.42 97.1403 1593.46 85.9003C1600.49 82.9803 1597.41 71.3603 1590.27 74.3303C1478.38 120.85 1364.31 162.11 1248.51 197.82C1191.1 215.52 1133.27 231.88 1075.08 246.84C1046.09 254.29 1015.58 261.98 985.492 257.21C958.262 252.89 936.602 235.31 911.232 225.97C860.372 207.25 808.912 235.95 773.032 270.8C763.102 280.45 753.822 290.73 744.672 301.12C740.242 306.15 736.042 312.24 730.712 316.34C722.972 322.29 719.532 314.81 716.022 308.67C705.532 290.29 687.002 281.43 666.582 278.7C643.902 275.67 621.002 279.59 598.802 284.14C573.212 289.39 548.052 296.7 523.612 305.92C475.322 324.14 430.012 349.59 389.362 381.39C369.582 396.86 349.072 413.65 333.802 433.73C320.322 451.47 310.732 476.2 324.592 496.61C348.822 532.26 402.272 512.06 429.992 493.05C521.782 430.1 546.252 315.44 588.862 219.78C626.792 134.63 689.112 44.4603 783.262 16.8703C802.542 11.2203 829.332 8.25033 845.022 23.8003C865.122 43.7303 850.992 75.2503 838.122 94.9503C810.642 137.03 771.952 172.51 729.072 198.43C683.082 226.23 631.692 242.05 578.442 248.18C520.842 254.81 462.722 251.9 404.922 250.33C347.532 248.78 289.612 248.47 233.042 259.55C176.472 270.63 124.892 292.79 75.1417 319.3C50.7617 332.29 26.9717 346.34 3.41173 360.75C-3.16827 364.77 2.85173 375.16 9.47173 371.11L9.44173 371.13Z" fill="#420000" fill-opacity="0.1"/>
</svg>
