<?xml version="1.0" encoding="UTF-8"?>
<svg id="Layer_1" data-name="Layer 1" xmlns="http://www.w3.org/2000/svg" viewBox="0 0 221.84 110.13">
  <path d="m195.98,51.73c-14.26,0-25.87-11.6-25.87-25.87S181.71,0,195.98,0s25.87,11.6,25.87,25.87-11.6,25.87-25.87,25.87Zm0-48.73c-12.61,0-22.87,10.26-22.87,22.87s10.26,22.87,22.87,22.87,22.87-10.26,22.87-22.87-10.26-22.87-22.87-22.87Z" fill="#420000"/>
  <path d="m165.38,51.73h-51.73V0h51.73v51.73Zm-48.73-3h45.73V3h-45.73v45.73Z" fill="#420000"/>
  <path d="m221.84,110.13h-51.73v-51.73h51.73v51.73Zm-48.73-3h45.73v-45.73h-45.73v45.73Z" fill="#420000"/>
  <path d="m58.17,110.13H0v-51.73h108.4v1.5c0,27.7-22.54,50.23-50.23,50.23Zm-55.17-3h55.17c25.54,0,46.42-20.38,47.21-45.73H3s0,45.73,0,45.73Z" fill="#420000"/>
  <path d="m83.04,51.73c-14.26,0-25.87-11.6-25.87-25.87S68.78,0,83.04,0s25.87,11.6,25.87,25.87-11.6,25.87-25.87,25.87Zm0-48.73c-12.61,0-22.87,10.26-22.87,22.87s10.26,22.87,22.87,22.87,22.87-10.26,22.87-22.87S95.65,3,83.04,3Z" fill="#420000"/>
  <path d="m52.44,51.73H.71V0h51.73v51.73Zm-48.73-3h45.73V3H3.71v45.73Z" fill="#420000"/>
  <path d="m140.48,110.13c-14.26,0-25.87-11.6-25.87-25.87s11.6-25.87,25.87-25.87,25.87,11.6,25.87,25.87-11.6,25.87-25.87,25.87Zm0-48.73c-12.61,0-22.87,10.26-22.87,22.87s10.26,22.87,22.87,22.87,22.87-10.26,22.87-22.87-10.26-22.87-22.87-22.87Z" fill="#420000"/>
</svg>